{"title":"2.Guns.2013.Webrip.CROPPED.XviD.Ac3.Feel-Free","uid":9070841,"size":1399784492,"categoryP":"video","categoryS":"movies","magnet":"?xt=urn:btih:4a5616919f1baeb70edb849af5fb5f05d2482e42&amp;dn=2.Guns.2013.Webrip.CROPPED.XviD.Ac3.Feel-Free&amp;tr=udp%3A%2F%2Ftracker.openbittorrent.com%3A80&amp;tr=udp%3A%2F%2Fopen.demonii.com%3A1337&amp;tr=udp%3A%2F%2Ftracker.coppersurfer.tk%3A6969&amp;tr=udp%3A%2F%2Fexodus.desync.com%3A6969","seeders":22,"leechers":4,"uploader":"SaM","files":8,"time":1382201831,"description":"Genre: Action | Comedy | Crime\nLanguage:English\nIMDb:http://www.imdb.com/title/tt1272878/\nSource: KingStoner Thanks\nSample:Never\nEncoder:Tony\n\nFormat : AVI\nFormat/Info : Audio Video Interleave\nFile size : 1.30 GiB\nDuration : 1h 44mn\nOverall bit rate : 1 791 Kbps\n\nVideo\nID : 0\nFormat : MPEG-4 Visual\nFormat profile : Advanced Simple@L5\nFormat settings, BVOP : 1\nFormat settings, QPel : No\nFormat settings, GMC : No warppoints\nFormat settings, Matrix : Default (H.263)\nCodec ID : XVID\nCodec ID/Hint : XviD\nDuration : 1h 44mn\nBit rate : 1 613 Kbps\nWidth : 640 pixels\nHeight : 248 pixels\nDisplay aspect ratio : 2.581\nFrame rate : 59.940 fps\nColor space : YUV\nChroma subsampling : 4:2:0\nBit depth : 8 bits\nScan type : Progressive\nCompression mode : Lossy\nBits/(Pixel*Frame) : 0.170\nStream size : 1.17 GiB (90%)\nWriting library : XviD 1.2.1 (UTC 2008-12-04)\n\nAudio\nID : 1\nFormat : AC-3\nFormat/Info : Audio Coding 3\nMode extension : CM (complete main)\nCodec ID : 2000\nDuration : 1h 44mn\nBit rate mode : Constant\nBit rate : 160 Kbps\nChannel(s) : 2 channels\nChannel positions : Front: L R\nSampling rate : 48.0 KHz\nBit depth : 16 bits\nCompression mode : Lossy\nStream size : 119 MiB (9%)\nAlignment : Aligned on interleaves\nInterleave, duration : 32 ms (1.92 video frames)\nInterleave, preload duration : 512 ms\n &lt;a href=&quot;\nhttp://img12.imageshack.us/img12/8606/afhp.png&quot; rel=&quot;nofollow&quot; target=&quot;_NEW&quot;&gt;\nhttp://img12.imageshack.us/img12/8606/afhp.png&lt;/a&gt;\n &lt;a href=&quot;\nhttp://img577.imageshack.us/img577/9585/vrk.png&quot; rel=&quot;nofollow&quot; target=&quot;_NEW&quot;&gt;\nhttp://img577.imageshack.us/img577/9585/vrk.png&lt;/a&gt;\n &lt;a href=&quot;\nhttp://img716.imageshack.us/img716/1961/ukd7.png&quot; rel=&quot;nofollow&quot; target=&quot;_NEW&quot;&gt;\nhttp://img716.imageshack.us/img716/1961/ukd7.png&lt;/a&gt;\n &lt;a href=&quot;\nhttp://img843.imageshack.us/img843/6703/crwg.png&quot; rel=&quot;nofollow&quot; target=&quot;_NEW&quot;&gt;\nhttp://img843.imageshack.us/img843/6703/crwg.png&lt;/a&gt;\n\nGreets:\nCRYS,INSPiRAL,IMAGINE,LKRG,ADTRG,FXG,3Li,FLAWL3SS,CrEwSaDe,TA,iLLUSiON,EMBER,HOPE,GooN,BBnRG,NOGRP,ETRG,BHRG,iLLUMiNATi,MiSTERE.ViSiON,DTRG SAFCuk009,LU,TheFalcon007,MYSTiC,PrisM,Noir,WBZ,LAP,Rx,Kingdom,SAFCuk009+Fabreezy,HDLiTE,TWiZTED,ETRG.ELEKTRI4KA,MAGNAT,CM8\nAnd to all the other p2p grps past and present\n\n\nMake sure its a real Feel-Free release @ http://extratorrent.cc\nThanks to all who promotes release Feel-Free !!!","torrent":{"xt":"urn:btih:4a5616919f1baeb70edb849af5fb5f05d2482e42","amp;dn":"2.Guns.2013.Webrip.CROPPED.XviD.Ac3.Feel-Free","amp;tr":["udp%3A%2F%2Ftracker.openbittorrent.com%3A80","udp%3A%2F%2Fopen.demonii.com%3A1337","udp%3A%2F%2Ftracker.coppersurfer.tk%3A6969","udp%3A%2F%2Fexodus.desync.com%3A6969"],"infoHash":"4a5616919f1baeb70edb849af5fb5f05d2482e42","infoHashBuffer":{"type":"Buffer","data":[74,86,22,145,159,27,174,183,14,219,132,154,245,251,95,5,210,72,46,66]},"announce":[],"urlList":[]}}